<svg width="60" height="57" viewBox="0 0 60 57" fill="none" xmlns="http://www.w3.org/2000/svg">
<g clip-path="url(#clip0_8516_1187)">
<path d="M30.8117 57.0317C25.3101 57.1824 19.8313 56.2875 14.6846 54.3977C10.5727 52.9451 7.10598 50.1589 4.8725 46.5118C3.94848 44.8611 3.32604 43.068 3.03272 41.2117C3.00674 41.0432 2.94467 40.8819 2.85047 40.738C2.75627 40.5942 2.63202 40.4711 2.48575 40.3765C1.53054 40.0185 0.752883 39.3199 0.312185 38.424C-0.128512 37.5281 -0.198854 36.5028 0.1156 35.5583C0.52836 32.8197 1.2281 30.1289 2.20399 27.5278C2.33876 27.0518 2.61477 26.6245 2.99779 26.2991C3.38082 25.9736 3.85401 25.7642 4.35869 25.6969C5.06323 25.6004 5.73304 25.3395 6.31048 24.9367C6.88793 24.5338 7.35571 24.001 7.67361 23.3842C10.6354 18.8979 15.0653 15.5045 20.2537 13.7476C20.4848 13.7013 20.6902 13.5741 20.8307 13.3905C20.9713 13.2069 21.0373 12.9796 21.0162 12.7519C21.0294 12.3697 21.0681 11.9888 21.1322 11.6115C21.1734 11.077 21.4036 10.5725 21.7841 10.1834C22.1646 9.79424 22.6719 9.54419 23.2206 9.47544C24.5465 9.25059 25.8891 9.08998 27.2482 8.96149C27.762 8.96149 28.0438 8.80089 28.1266 8.23876C28.2592 7.32329 28.5244 6.42387 28.657 5.5084C28.6702 5.35878 28.647 5.20825 28.5895 5.06882C28.5319 4.9294 28.4416 4.80493 28.3256 4.70536C28.031 4.4815 27.787 4.20143 27.6087 3.88249C27.4304 3.56355 27.3216 3.21254 27.289 2.85119C27.2563 2.48984 27.3006 2.12585 27.419 1.78176C27.5375 1.43766 27.7275 1.12078 27.9775 0.850751C28.2346 0.600541 28.5417 0.403681 28.8799 0.272155C29.2181 0.140629 29.5804 0.077198 29.9447 0.0857185C30.3091 0.0942389 30.6678 0.174538 30.9991 0.32172C31.3303 0.468903 31.6272 0.67989 31.8716 0.941831C32.116 1.20377 32.3029 1.51118 32.4207 1.84534C32.5386 2.1795 32.585 2.53341 32.5572 2.88551C32.5294 3.23762 32.4279 3.58055 32.2589 3.89342C32.0899 4.20629 31.8569 4.48254 31.5742 4.70536C31.4676 4.81108 31.3846 4.93695 31.3304 5.07511C31.2762 5.21327 31.252 5.36077 31.2592 5.5084C31.3587 6.35963 31.5907 7.1145 31.7233 8.01391C31.8559 8.91332 32.088 8.94543 32.8338 8.97756C34.0291 9.05776 35.2188 9.20253 36.3974 9.41119C38.0548 9.70029 38.751 10.3748 38.8007 11.997C38.7761 12.4736 38.9304 12.9428 39.2351 13.3177C39.5398 13.6927 39.9742 13.9481 40.4581 14.0367C45.7068 16.0145 50.1111 19.654 52.9554 24.3639C53.0754 24.633 53.265 24.8676 53.506 25.0449C53.7471 25.2222 54.0313 25.3361 54.3311 25.3757C56.7013 25.5363 57.7786 26.9818 58.3919 29.0536C59.2079 31.5854 59.7631 34.1892 60.0493 36.8271C60.1642 37.4334 60.0626 38.0595 59.7614 38.6025C59.4601 39.1454 58.9771 39.5729 58.3919 39.8144C57.9272 40.0164 57.5277 40.3366 57.2358 40.741C56.944 41.1454 56.7707 41.6189 56.7344 42.1111C56.2444 44.468 55.2059 46.6855 53.698 48.5947C52.1901 50.504 50.2525 52.0547 48.0327 53.1289C44.0827 55.1626 39.7452 56.3923 35.2869 56.7426C33.5134 56.8871 31.7233 57.0317 30.8117 57.0317ZM30.6626 49.8364C31.4084 49.8364 32.8836 49.8364 34.3255 49.6276C37.9391 49.3765 41.4682 48.4493 44.7178 46.8973C45.9742 46.3585 47.1059 45.5804 48.0455 44.6092C48.9852 43.6379 49.7136 42.4934 50.1874 41.2438C50.6286 39.7011 50.7079 38.0822 50.4195 36.5059C49.8687 31.5575 47.3764 27.0036 43.4581 23.7857C40.2141 21.149 36.168 19.6145 31.9388 19.4171C27.2204 18.9106 22.4642 19.9693 18.4471 22.4205C15.8303 24.0729 13.6518 26.2994 12.0882 28.9195C10.5246 31.5395 9.61984 34.4796 9.4471 37.5016C9.15836 39.5987 9.69054 41.7245 10.9388 43.4602C12.3085 45.1756 14.1208 46.5107 16.1929 47.3309C20.7772 49.153 25.7112 50.0018 30.6626 49.8203V49.8364Z" fill="#0F973D"/>
<path d="M36.3976 34.9167C36.3572 33.5134 36.8199 32.1399 37.707 31.03C37.9912 30.6486 38.3647 30.338 38.797 30.1238C39.2292 29.9095 39.7077 29.7979 40.1932 29.7979C40.6787 29.7979 41.1572 29.9095 41.5894 30.1238C42.0217 30.338 42.3952 30.6486 42.6794 31.03C43.5413 32.1456 44.0168 33.497 44.0376 34.8905C44.0585 36.2839 43.6236 37.648 42.7954 38.7874C42.513 39.2117 42.1254 39.5606 41.6679 39.8023C41.2104 40.0439 40.6977 40.1705 40.1766 40.1705C39.6556 40.1705 39.1429 40.0439 38.6854 39.8023C38.2279 39.5606 37.8402 39.2117 37.5578 38.7874C36.7393 37.6573 36.3312 36.2959 36.3976 34.9167Z" fill="#0F973D"/>
<path d="M23.6197 34.5467C23.7255 36.0893 23.2678 37.6187 22.3269 38.8671C22.0427 39.2485 21.6692 39.5591 21.237 39.7734C20.8047 39.9876 20.3262 40.0993 19.8407 40.0993C19.3552 40.0993 18.8767 39.9876 18.4445 39.7734C18.0123 39.5591 17.6387 39.2485 17.3545 38.8671C16.4801 37.7302 16.0078 36.3501 16.0078 34.9322C16.0078 33.5143 16.4801 32.1342 17.3545 30.9973C17.6409 30.6189 18.0152 30.3111 18.4471 30.099C18.8791 29.8869 19.3565 29.7764 19.8407 29.7764C20.325 29.7764 20.8024 29.8869 21.2343 30.099C21.6663 30.3111 22.0406 30.6189 22.3269 30.9973C23.1488 32.0106 23.6031 33.258 23.6197 34.5467Z" fill="#0F973D"/>
</g>
<defs>
<clipPath id="clip0_8516_1187">
<rect width="60" height="57" fill="white"/>
</clipPath>
</defs>
</svg>
