<svg width="135" height="39" viewBox="0 0 135 39" fill="none" xmlns="http://www.w3.org/2000/svg">
<path d="M74.7578 17.5749L74.9747 14.5382C75.611 14.5382 76.1098 14.4949 76.4713 14.4081C76.8473 14.3213 77.1148 14.1623 77.2739 13.9309C77.4329 13.6851 77.5125 13.338 77.5125 12.8898C77.5125 12.4849 77.4546 12.0005 77.3389 11.4365C77.2377 10.8726 77.1004 10.287 76.9268 9.67963C76.7533 9.0723 76.5798 8.51558 76.4063 8.00948L79.3995 7.18525C79.573 7.67689 79.7466 8.24807 79.9201 8.89878C80.0936 9.54949 80.2382 10.2219 80.3539 10.916C80.484 11.5956 80.5491 12.2535 80.5491 12.8898C80.5491 13.6851 80.4479 14.3575 80.2454 14.907C80.043 15.442 79.761 15.8903 79.3995 16.2518C79.0525 16.5988 78.6331 16.8736 78.1415 17.076C77.6643 17.264 77.1365 17.3941 76.5581 17.4664C75.9797 17.5387 75.3796 17.5749 74.7578 17.5749ZM77.8812 5.38496C77.4329 5.38496 77.0497 5.23313 76.7316 4.92947C76.428 4.6258 76.2761 4.24984 76.2761 3.80157C76.2761 3.35331 76.428 2.97011 76.7316 2.65199C77.0497 2.33387 77.4329 2.1748 77.8812 2.1748C78.315 2.1748 78.6837 2.33387 78.9874 2.65199C79.3055 2.97011 79.4646 3.35331 79.4646 3.80157C79.4646 4.24984 79.3055 4.6258 78.9874 4.92947C78.6837 5.23313 78.315 5.38496 77.8812 5.38496Z" fill="#0F973D"/>
<path d="M74.7288 17.5748C73.9913 17.5748 73.2828 17.5097 72.6031 17.3796C71.9235 17.235 71.309 17.047 70.7595 16.8156C70.2245 16.5842 69.7834 16.324 69.4364 16.0348L71.3885 13.9308C71.9091 14.1477 72.4441 14.3068 72.9936 14.408C73.5431 14.4947 74.1938 14.5381 74.9457 14.5381C75.4952 14.5381 75.8856 14.6827 76.117 14.9719C76.3628 15.2467 76.4857 15.5937 76.4857 16.0131C76.4857 16.4613 76.3339 16.8373 76.0302 17.141C75.7265 17.4302 75.2927 17.5748 74.7288 17.5748ZM50.8912 22.4768C49.9224 22.4768 49.0186 22.3538 48.1799 22.108C47.3557 21.8767 46.6327 21.5224 46.0109 21.0452C45.3891 20.5825 44.9047 19.9968 44.5577 19.2883C44.2106 18.5942 44.0371 17.7844 44.0371 16.859C44.0371 16.5264 44.066 16.136 44.1239 15.6877C44.1817 15.2394 44.2902 14.7333 44.4492 14.1694C44.6083 13.591 44.8469 12.9475 45.165 12.239L47.8329 13.1716C47.6738 13.6199 47.5365 14.032 47.4208 14.408C47.3051 14.7695 47.2183 15.1093 47.1605 15.4274C47.1027 15.7311 47.0737 16.0348 47.0737 16.3384C47.0737 16.9168 47.2256 17.4374 47.5292 17.9001C47.8474 18.3773 48.2956 18.7533 48.874 19.028C49.4669 19.3028 50.1682 19.4401 50.978 19.4401C51.7588 19.4401 52.4312 19.3606 52.9952 19.2015C53.5591 19.0425 54.0218 18.8039 54.3834 18.4858C54.7593 18.1821 55.0341 17.8061 55.2076 17.3579C55.3811 16.8951 55.4679 16.3673 55.4679 15.7745C55.4679 15.1527 55.3522 14.4224 55.1208 13.5838C54.8895 12.7451 54.6292 11.8196 54.34 10.8074L57.3766 10.0266C57.5212 10.576 57.6369 11.0532 57.7236 11.4581C57.8249 11.8485 57.9044 12.1739 57.9622 12.4342C58.0345 12.68 58.0996 12.8752 58.1575 13.0198C58.2731 13.3235 58.4394 13.5838 58.6563 13.8007C58.8732 14.0031 59.1914 14.1766 59.6107 14.3212C60.0445 14.4514 60.6229 14.5526 61.3459 14.6249C62.0689 14.6827 63.0016 14.7117 64.144 14.7117C65.0983 14.7117 65.9226 14.6827 66.6166 14.6249C67.3252 14.5526 67.9181 14.4586 68.3952 14.3429C68.8869 14.2128 69.2773 14.0609 69.5665 13.8874C69.8702 13.7139 70.0871 13.5187 70.2172 13.3018C70.3618 13.0704 70.4341 12.8246 70.4341 12.5643C70.4341 12.304 70.3691 12.051 70.2389 11.8052C70.1232 11.5593 69.928 11.3569 69.6533 11.1978C69.3785 11.0388 69.0243 10.9592 68.5905 10.9592C68.0265 10.9592 67.4626 11.0966 66.8986 11.3714C66.3347 11.6461 65.7852 12.0076 65.2502 12.4559C64.7296 12.8897 64.2452 13.3524 63.7969 13.844C63.3631 14.3357 62.9799 14.7984 62.6473 15.2322L59.5456 14.8635C59.965 14.1839 60.4349 13.5115 60.9555 12.8463C61.4905 12.1667 62.0617 11.5304 62.669 10.9376C63.2763 10.3447 63.9126 9.82412 64.5778 9.37585C65.2574 8.92759 65.9587 8.57331 66.6817 8.31303C67.4047 8.05275 68.135 7.92261 68.8724 7.92261C69.8413 7.92261 70.6655 8.11782 71.3451 8.50825C72.0247 8.88421 72.5453 9.40477 72.9068 10.0699C73.2828 10.7351 73.4708 11.4943 73.4708 12.3474C73.4708 13.1427 73.3045 13.873 72.9719 14.5381C72.6538 15.1888 72.1332 15.76 71.4102 16.2517C70.7016 16.7288 69.769 17.0976 68.6121 17.3579C67.4553 17.6181 66.0527 17.7483 64.4042 17.7483C63.58 17.7483 62.7702 17.6977 61.9749 17.5965C61.1941 17.5097 60.4783 17.3723 59.8276 17.1843C59.1769 16.9964 58.6274 16.765 58.1791 16.4903C57.7309 16.201 57.4272 15.8685 57.2682 15.4925L58.4828 16.1649C58.4394 17.1482 58.2298 18.0303 57.8538 18.8111C57.4778 19.592 56.9573 20.2499 56.2921 20.7849C55.6414 21.3344 54.8605 21.7537 53.9495 22.043C53.0386 22.3322 52.0191 22.4768 50.8912 22.4768Z" fill="#0F973D"/>
<path d="M27.3926 16.5989L28.4554 13.8442C28.9904 14.0756 29.5038 14.2491 29.9954 14.3648C30.4871 14.4805 30.9787 14.5383 31.4703 14.5383C31.9764 14.5383 32.3958 14.4949 32.7284 14.4082C33.0754 14.307 33.3357 14.1624 33.5092 13.9744C33.6827 13.7864 33.7695 13.5623 33.7695 13.302C33.7695 13.0562 33.69 12.7163 33.5309 12.2825C33.3863 11.8487 33.1188 11.2848 32.7284 10.5907C32.338 9.88216 31.7668 9.00732 31.0148 7.96618L33.596 6.25266C34.2901 7.23595 34.8902 8.19755 35.3963 9.13746C35.9024 10.0629 36.2928 10.9305 36.5675 11.7403C36.8568 12.5356 37.0014 13.2369 37.0014 13.8442C37.0014 14.5962 36.7989 15.2541 36.394 15.8181C36.0036 16.3675 35.418 16.8013 34.6371 17.1195C33.8707 17.4376 32.9236 17.5967 31.7957 17.5967C31.3764 17.5967 30.9064 17.5605 30.3858 17.4882C29.8653 17.4159 29.3375 17.3074 28.8024 17.1628C28.2819 17.0182 27.8119 16.8303 27.3926 16.5989ZM31.492 4.6042C31.0438 4.6042 30.6606 4.45237 30.3425 4.1487C30.0388 3.84504 29.887 3.46908 29.887 3.02081C29.887 2.57255 30.0388 2.18935 30.3425 1.87123C30.6606 1.5531 31.0438 1.39404 31.492 1.39404C31.9258 1.39404 32.2946 1.5531 32.5982 1.87123C32.9164 2.18935 33.0754 2.57255 33.0754 3.02081C33.0754 3.46908 32.9164 3.84504 32.5982 4.1487C32.2946 4.45237 31.9258 4.6042 31.492 4.6042Z" fill="#0F973D"/>
<path d="M16.7832 17.5748L17.0001 14.5381H20.1018C20.4055 14.5381 20.673 14.5237 20.9043 14.4948C21.1357 14.4514 21.3237 14.3863 21.4683 14.2995C21.6274 14.2128 21.743 14.1043 21.8153 13.9742C21.8876 13.8441 21.9238 13.6922 21.9238 13.5187C21.9238 13.3452 21.8298 13.0704 21.6418 12.6945C21.4683 12.304 21.0851 11.8341 20.4922 11.2846C20.1741 10.9954 19.8271 10.6917 19.4511 10.3736C19.0896 10.041 18.7426 9.73014 18.41 9.44093C18.0774 9.13727 17.8026 8.86976 17.5857 8.6384C17.3688 8.40703 17.2604 8.24074 17.2604 8.13952C17.2604 7.92262 17.2748 7.68402 17.3038 7.42374C17.3327 7.16346 17.3761 6.92487 17.4339 6.70796C17.5062 6.49106 17.6002 6.332 17.7159 6.23078C17.9617 5.99942 18.3232 5.7319 18.8004 5.42824C19.292 5.11012 19.8777 4.7703 20.5573 4.4088C21.2369 4.03283 21.9961 3.64241 22.8348 3.23753C23.6879 2.81818 24.5989 2.39884 25.5677 1.97949L26.8041 4.6257C26.0088 4.97275 25.2569 5.31256 24.5483 5.64514C23.8398 5.96327 23.1746 6.28139 22.5528 6.59951C21.9455 6.90318 21.3815 7.20684 20.861 7.5105C20.3549 7.79971 19.9066 8.08891 19.5162 8.37811L19.7981 6.77303C21.0273 7.71294 22.0033 8.55886 22.7263 9.31079C23.4638 10.0627 24.0133 10.7351 24.3748 11.328C24.7363 11.9064 24.9749 12.427 25.0906 12.8897C25.2062 13.3379 25.2641 13.7356 25.2641 14.0826C25.2641 14.4297 25.1773 14.8057 25.0038 15.2105C24.8447 15.601 24.5483 15.9769 24.1145 16.3384C23.6952 16.6999 23.1023 16.9964 22.3359 17.2277C21.5695 17.4591 20.5862 17.5748 19.386 17.5748H16.7832Z" fill="#0F973D"/>
<path d="M0 16.8593C0 16.5267 0.0289203 16.1363 0.0867609 15.688C0.144602 15.2397 0.253053 14.7336 0.412114 14.1697C0.571176 13.5913 0.809769 12.9478 1.12789 12.2393L3.79579 13.1719C3.63673 13.6202 3.49936 14.0323 3.38368 14.4083C3.268 14.7698 3.18123 15.1096 3.12339 15.4277C3.06555 15.7314 3.03663 16.035 3.03663 16.3387C3.03663 16.8159 3.13785 17.2425 3.3403 17.6184C3.5572 18.0089 3.86809 18.3342 4.27298 18.5945C4.67786 18.8692 5.16951 19.0789 5.74791 19.2235C6.34078 19.3681 7.02041 19.4404 7.78679 19.4404C8.5821 19.4404 9.29065 19.4043 9.91244 19.332C10.5487 19.2597 11.0837 19.1512 11.5175 19.0066C11.9658 18.862 12.3056 18.674 12.537 18.4427C12.7683 18.2258 12.884 17.9727 12.884 17.6835C12.884 17.5534 12.8334 17.4305 12.7322 17.3148C12.6454 17.1991 12.4936 17.0762 12.2767 16.946C12.0742 16.8159 11.7995 16.6785 11.4524 16.5339C11.1199 16.3893 10.715 16.2303 10.2378 16.0567L10.9536 12.9984C11.5754 13.2587 12.161 13.4901 12.7105 13.6925C13.2744 13.8805 13.8094 14.0395 14.3156 14.1697C14.8217 14.2854 15.2988 14.3794 15.7471 14.4517C16.1954 14.5095 16.6147 14.5384 17.0051 14.5384C17.5546 14.5384 17.9451 14.683 18.1764 14.9722C18.4078 15.247 18.5235 15.594 18.5235 16.0134C18.5235 16.4616 18.3716 16.8376 18.068 17.1413C17.7643 17.4305 17.3377 17.5751 16.7882 17.5751C16.6726 17.5751 16.5569 17.5751 16.4412 17.5751C16.34 17.5751 16.2315 17.5751 16.1158 17.5751C16.0146 17.5751 15.9062 17.5751 15.7905 17.5751C15.8194 17.7197 15.8339 17.8426 15.8339 17.9438C15.8339 18.0595 15.8339 18.1679 15.8339 18.2691C15.8339 18.7463 15.6676 19.2307 15.335 19.7224C15.0169 20.214 14.518 20.6695 13.8384 21.0889C13.1587 21.5082 12.2911 21.8408 11.2355 22.0866C10.1944 22.3469 8.95084 22.477 7.50482 22.477C5.94312 22.477 4.59833 22.2746 3.47044 21.8697C2.35701 21.4793 1.49663 20.8647 0.8893 20.0261C0.296433 19.2018 0 18.1462 0 16.8593ZM9.63046 27.5092C9.21112 27.5092 8.84962 27.3574 8.54595 27.0537C8.25675 26.7645 8.11215 26.4174 8.11215 26.0126C8.11215 25.5932 8.25675 25.2317 8.54595 24.928C8.84962 24.6244 9.21112 24.4725 9.63046 24.4725C10.0353 24.4725 10.3824 24.6244 10.6716 24.928C10.9608 25.2317 11.1054 25.5932 11.1054 26.0126C11.1054 26.4174 10.9608 26.7645 10.6716 27.0537C10.3824 27.3574 10.0353 27.5092 9.63046 27.5092ZM5.87805 27.5092C5.45871 27.5092 5.09721 27.3574 4.79354 27.0537C4.50434 26.7645 4.35974 26.4174 4.35974 26.0126C4.35974 25.5932 4.50434 25.2317 4.79354 24.928C5.09721 24.6244 5.45871 24.4725 5.87805 24.4725C6.28294 24.4725 6.62998 24.6244 6.91919 24.928C7.20839 25.2317 7.35299 25.5932 7.35299 26.0126C7.35299 26.4174 7.20839 26.7645 6.91919 27.0537C6.62998 27.3574 6.28294 27.5092 5.87805 27.5092Z" fill="#0F973D"/>
<path d="M79.5137 37.8009V32.3566H80.9561V37.8009H79.5137ZM79.5137 31.489V30.2527H80.9669V31.489H79.5137Z" fill="#1D2739"/>
<path d="M69.6699 37.801V30.1335H71.1123V34.4065L71.7522 34.3848L72.8801 32.3568H74.3875L73.0102 34.9162L74.4635 37.801H72.9451L71.7739 35.6429L71.1123 35.6754V37.801H69.6699Z" fill="#1D2739"/>
<path d="M61.0757 37.9204C60.5118 37.9204 60.0852 37.7794 59.796 37.4974C59.514 37.2082 59.373 36.7744 59.373 36.196C59.373 35.7911 59.4453 35.4766 59.5899 35.2525C59.7346 35.0211 59.9478 34.8548 60.2298 34.7536C60.519 34.6452 60.8697 34.5801 61.2818 34.5584L62.6049 34.4391V34.1138C62.6049 33.8535 62.5398 33.6727 62.4097 33.5715C62.2795 33.463 62.0879 33.4088 61.8349 33.4088C61.6324 33.4088 61.3975 33.4161 61.13 33.4305C60.8697 33.445 60.6094 33.463 60.3491 33.4847C60.0961 33.5064 59.8755 33.5281 59.6876 33.5498L59.6442 32.5304C59.8322 32.487 60.0563 32.4436 60.3166 32.4002C60.5841 32.3496 60.8624 32.3098 61.1516 32.2809C61.4408 32.252 61.7084 32.2375 61.9542 32.2375C62.4169 32.2375 62.8037 32.2954 63.1146 32.4111C63.4255 32.5268 63.6605 32.7183 63.8195 32.9859C63.9786 33.2461 64.0581 33.6004 64.0581 34.0487V36.5322C64.0726 36.6334 64.1268 36.713 64.2208 36.7708C64.3148 36.8214 64.4233 36.8576 64.5462 36.8793L64.5136 37.877C64.398 37.877 64.2823 37.877 64.1666 37.877C64.0581 37.8842 63.9533 37.8842 63.8521 37.877C63.7509 37.877 63.6605 37.8698 63.581 37.8553C63.4147 37.8336 63.2701 37.7902 63.1471 37.7252C63.0315 37.6601 62.9375 37.5914 62.8652 37.5191C62.7495 37.5697 62.594 37.6276 62.3988 37.6926C62.2036 37.7577 61.9903 37.8119 61.759 37.8553C61.5348 37.8987 61.3071 37.9204 61.0757 37.9204ZM61.4228 36.8467C61.5601 36.8467 61.7047 36.8323 61.8566 36.8033C62.0084 36.7744 62.1494 36.7419 62.2795 36.7057C62.4169 36.6624 62.5254 36.6226 62.6049 36.5864V35.3393L61.4987 35.4369C61.2601 35.4585 61.0866 35.5309 60.9781 35.6538C60.8769 35.7694 60.8263 35.9357 60.8263 36.1526C60.8263 36.3695 60.8733 36.5394 60.9673 36.6624C61.0685 36.7853 61.2203 36.8467 61.4228 36.8467Z" fill="#1D2739"/>
<path d="M49.3223 37.801V30.1335H50.7647V32.552C50.8876 32.5086 51.0322 32.4652 51.1985 32.4219C51.372 32.3713 51.5491 32.3279 51.7299 32.2917C51.9179 32.2556 52.0878 32.2375 52.2396 32.2375C52.6228 32.2375 52.9373 32.2881 53.1831 32.3893C53.4362 32.4833 53.635 32.6388 53.7796 32.8557C53.9242 33.0653 54.0254 33.3437 54.0833 33.6907C54.1483 34.0378 54.1809 34.4571 54.1809 34.9488V37.801H52.7276V35.0572C52.7276 34.6813 52.7059 34.3812 52.6626 34.1571C52.6192 33.9257 52.536 33.7594 52.4131 33.6582C52.2974 33.557 52.1167 33.5064 51.8709 33.5064C51.7407 33.5064 51.607 33.5172 51.4696 33.5389C51.3322 33.5606 51.1985 33.5895 51.0683 33.6257C50.9454 33.6618 50.8442 33.6944 50.7647 33.7233V37.801H49.3223Z" fill="#1D2739"/>
<path d="M38.0391 37.801V30.3938H40.8696C41.448 30.3938 41.9325 30.4769 42.3229 30.6432C42.7205 30.8023 43.0387 31.0373 43.2773 31.3482C43.5158 31.6591 43.6858 32.035 43.787 32.4761C43.8954 32.9171 43.9497 33.4196 43.9497 33.9835C43.9497 34.5547 43.899 35.0717 43.7978 35.5344C43.7038 35.9971 43.5412 36.3984 43.3098 36.7382C43.0784 37.078 42.7675 37.3419 42.3771 37.5299C41.9867 37.7106 41.4987 37.801 40.913 37.801H38.0391ZM39.5357 36.543H40.8263C41.1661 36.543 41.4408 36.4779 41.6505 36.3478C41.8602 36.2176 42.0192 36.0369 42.1277 35.8055C42.2434 35.5669 42.3193 35.2958 42.3554 34.9921C42.3988 34.6812 42.4205 34.345 42.4205 33.9835C42.4205 33.6365 42.3988 33.322 42.3554 33.04C42.312 32.7508 42.2325 32.505 42.1168 32.3025C42.0084 32.0929 41.8493 31.9338 41.6396 31.8254C41.4372 31.7097 41.1661 31.6518 40.8263 31.6518H39.5357V36.543Z" fill="#1D2739"/>
<path d="M23.7306 37.9204C23.4921 37.9204 23.2354 37.9059 22.9606 37.877C22.6931 37.8553 22.4401 37.8264 22.2015 37.7902C21.9701 37.7541 21.7713 37.7179 21.605 37.6818L21.6484 36.6081C21.8364 36.6298 22.046 36.6551 22.2774 36.684C22.516 36.713 22.7474 36.7383 22.9715 36.76C23.2029 36.7744 23.3908 36.7817 23.5354 36.7817C23.7523 36.7817 23.9295 36.7636 24.0668 36.7274C24.2114 36.6913 24.3199 36.6334 24.3922 36.5539C24.4645 36.4671 24.5007 36.3442 24.5007 36.1852C24.5007 36.0623 24.4681 35.9683 24.403 35.9032C24.3452 35.8381 24.2295 35.7839 24.056 35.7405C23.8897 35.6899 23.6439 35.6393 23.3185 35.5887C22.9136 35.5308 22.5775 35.4477 22.3099 35.3393C22.0497 35.2308 21.8581 35.0717 21.7351 34.8621C21.6122 34.6452 21.5508 34.3523 21.5508 33.9836C21.5508 33.5353 21.6484 33.1847 21.8436 32.9316C22.0388 32.6786 22.2991 32.5014 22.6244 32.4002C22.9498 32.2918 23.3041 32.2375 23.6873 32.2375C23.9403 32.2375 24.2006 32.252 24.4681 32.2809C24.7356 32.3026 24.9887 32.3315 25.2273 32.3677C25.4659 32.4038 25.6647 32.44 25.8238 32.4761L25.7804 33.5715C25.5996 33.5426 25.39 33.5173 25.1514 33.4956C24.9128 33.4667 24.6742 33.445 24.4356 33.4305C24.2042 33.4161 24.009 33.4088 23.8499 33.4088C23.6837 33.4088 23.5354 33.4269 23.4053 33.463C23.2752 33.492 23.1739 33.5426 23.1016 33.6149C23.0366 33.6872 23.004 33.7956 23.004 33.9402C23.004 34.0415 23.0329 34.1246 23.0908 34.1897C23.1486 34.2547 23.2571 34.3126 23.4161 34.3632C23.5824 34.4066 23.821 34.45 24.1319 34.4933C24.5802 34.5584 24.9381 34.6488 25.2056 34.7645C25.4731 34.8801 25.6647 35.0464 25.7804 35.2633C25.9033 35.4802 25.9647 35.7731 25.9647 36.1418C25.9647 36.5756 25.878 36.9226 25.7045 37.1829C25.5309 37.4432 25.2779 37.6312 24.9453 37.7469C24.6127 37.8625 24.2078 37.9204 23.7306 37.9204Z" fill="#1D2739"/>
<path d="M13.1734 37.9204C12.6094 37.9204 12.1829 37.7794 11.8937 37.4974C11.6117 37.2082 11.4707 36.7744 11.4707 36.196C11.4707 35.7911 11.543 35.4766 11.6876 35.2525C11.8322 35.0211 12.0455 34.8548 12.3275 34.7536C12.6167 34.6452 12.9673 34.5801 13.3794 34.5584L14.7025 34.4391V34.1138C14.7025 33.8535 14.6375 33.6727 14.5073 33.5715C14.3772 33.463 14.1856 33.4088 13.9325 33.4088C13.7301 33.4088 13.4951 33.4161 13.2276 33.4305C12.9673 33.445 12.707 33.463 12.4468 33.4847C12.1937 33.5064 11.9732 33.5281 11.7852 33.5498L11.7418 32.5304C11.9298 32.487 12.1539 32.4436 12.4142 32.4002C12.6817 32.3496 12.9601 32.3098 13.2493 32.2809C13.5385 32.252 13.806 32.2375 14.0518 32.2375C14.5146 32.2375 14.9014 32.2954 15.2123 32.4111C15.5232 32.5268 15.7581 32.7183 15.9172 32.9859C16.0763 33.2461 16.1558 33.6004 16.1558 34.0487V36.5322C16.1703 36.6334 16.2245 36.713 16.3185 36.7708C16.4125 36.8214 16.5209 36.8576 16.6438 36.8793L16.6113 37.877C16.4956 37.877 16.3799 37.877 16.2642 37.877C16.1558 37.8842 16.051 37.8842 15.9497 37.877C15.8485 37.877 15.7581 37.8698 15.6786 37.8553C15.5123 37.8336 15.3677 37.7902 15.2448 37.7252C15.1291 37.6601 15.0351 37.5914 14.9628 37.5191C14.8471 37.5697 14.6917 37.6276 14.4965 37.6926C14.3013 37.7577 14.088 37.8119 13.8566 37.8553C13.6325 37.8987 13.4047 37.9204 13.1734 37.9204ZM13.5204 36.8467C13.6578 36.8467 13.8024 36.8323 13.9542 36.8033C14.1061 36.7744 14.2471 36.7419 14.3772 36.7057C14.5146 36.6624 14.623 36.6226 14.7025 36.5864V35.3393L13.5963 35.4369C13.3578 35.4585 13.1842 35.5309 13.0758 35.6538C12.9746 35.7694 12.9239 35.9357 12.9239 36.1526C12.9239 36.3695 12.9709 36.5394 13.0649 36.6624C13.1662 36.7853 13.318 36.8467 13.5204 36.8467Z" fill="#1D2739"/>
<path d="M0.119141 37.801V30.3938H2.07126L4.44634 35.5995H4.64155V30.3938H6.13818V37.801H4.20775L1.81098 32.5086H1.61577V37.801H0.119141Z" fill="#1D2739"/>
<g clip-path="url(#clip0_8408_929)">
<path d="M115.055 39.0219C111.296 39.125 107.552 38.5127 104.035 37.2197C101.225 36.2258 98.8564 34.3195 97.3302 31.8241C96.6988 30.6946 96.2734 29.4678 96.073 28.1977C96.0553 28.0824 96.0128 27.972 95.9485 27.8736C95.8841 27.7752 95.7992 27.6909 95.6992 27.6263C95.0465 27.3813 94.5151 26.9033 94.214 26.2903C93.9128 25.6774 93.8648 24.9758 94.0796 24.3296C94.3617 22.4558 94.8399 20.6148 95.5067 18.8351C95.5988 18.5093 95.7874 18.217 96.0491 17.9943C96.3109 17.7716 96.6342 17.6284 96.9791 17.5823C97.4605 17.5163 97.9182 17.3378 98.3128 17.0621C98.7074 16.7865 99.0271 16.422 99.2443 15.9999C101.268 12.9303 104.295 10.6086 107.841 9.40649C107.999 9.37476 108.139 9.28779 108.235 9.16215C108.331 9.03651 108.376 8.88098 108.362 8.72517C108.371 8.46371 108.397 8.20309 108.441 7.94495C108.469 7.5792 108.626 7.23407 108.886 6.9678C109.146 6.70154 109.493 6.53045 109.868 6.48341C110.774 6.32957 111.692 6.21968 112.62 6.13176C112.971 6.13176 113.164 6.02188 113.221 5.63726C113.311 5.01089 113.492 4.3955 113.583 3.76913C113.592 3.66675 113.576 3.56376 113.537 3.46836C113.497 3.37296 113.436 3.2878 113.356 3.21968C113.155 3.06651 112.988 2.87488 112.867 2.65666C112.745 2.43844 112.67 2.19827 112.648 1.95103C112.626 1.70379 112.656 1.45475 112.737 1.21932C112.818 0.983881 112.948 0.767067 113.119 0.582311C113.294 0.411115 113.504 0.276421 113.735 0.18643C113.966 0.0964385 114.214 0.0530381 114.463 0.0588679C114.712 0.0646977 114.957 0.119639 115.183 0.220343C115.41 0.321047 115.613 0.465406 115.78 0.644629C115.947 0.823852 116.074 1.03419 116.155 1.26282C116.235 1.49145 116.267 1.7336 116.248 1.97452C116.229 2.21543 116.16 2.45007 116.044 2.66414C115.929 2.87821 115.77 3.06722 115.576 3.21968C115.503 3.29201 115.447 3.37813 115.41 3.47266C115.373 3.56719 115.356 3.66811 115.361 3.76913C115.429 4.35154 115.588 4.86803 115.678 5.48342C115.769 6.0988 115.927 6.12078 116.437 6.14276C117.254 6.19763 118.067 6.29668 118.872 6.43946C120.005 6.63726 120.48 7.0988 120.514 8.20869C120.498 8.53481 120.603 8.85581 120.811 9.11235C121.019 9.3689 121.316 9.54365 121.647 9.6043C125.234 10.9575 128.243 13.4477 130.187 16.6702C130.269 16.8544 130.398 17.0149 130.563 17.1362C130.728 17.2575 130.922 17.3354 131.127 17.3625C132.747 17.4724 133.483 18.4614 133.902 19.879C134.459 21.6113 134.839 23.3929 135.034 25.1977C135.113 25.6125 135.043 26.041 134.838 26.4124C134.632 26.7839 134.302 27.0764 133.902 27.2417C133.584 27.3798 133.311 27.5989 133.112 27.8756C132.912 28.1523 132.794 28.4763 132.769 28.8131C132.434 30.4257 131.725 31.9429 130.694 33.2492C129.664 34.5556 128.34 35.6166 126.823 36.3516C124.124 37.743 121.16 38.5844 118.113 38.8241C116.901 38.923 115.678 39.0219 115.055 39.0219ZM114.953 34.0988C115.463 34.0988 116.471 34.0988 117.456 33.9559C119.926 33.7841 122.337 33.1497 124.558 32.0878C125.416 31.7192 126.19 31.1868 126.832 30.5223C127.474 29.8577 127.972 29.0747 128.295 28.2197C128.597 27.1641 128.651 26.0564 128.454 24.9779C128.078 21.5922 126.375 18.4763 123.697 16.2746C121.48 14.4706 118.715 13.4207 115.825 13.2856C112.601 12.939 109.351 13.6634 106.606 15.3406C104.818 16.4712 103.329 17.9945 102.261 19.7872C101.192 21.5799 100.574 23.5915 100.456 25.6592C100.259 27.0941 100.623 28.5486 101.475 29.7362C102.411 30.9099 103.65 31.8234 105.066 32.3845C108.198 33.6312 111.57 34.212 114.953 34.0878V34.0988Z" fill="#0F973D"/>
<path d="M118.872 23.8901C118.844 22.9299 119.161 21.9902 119.767 21.2307C119.961 20.9698 120.216 20.7572 120.512 20.6107C120.807 20.4641 121.134 20.3877 121.466 20.3877C121.797 20.3877 122.124 20.4641 122.42 20.6107C122.715 20.7572 122.97 20.9698 123.165 21.2307C123.753 21.9941 124.078 22.9187 124.093 23.8721C124.107 24.8255 123.81 25.7589 123.244 26.5384C123.051 26.8288 122.786 27.0675 122.473 27.2328C122.161 27.3982 121.81 27.4848 121.454 27.4848C121.098 27.4848 120.748 27.3982 120.435 27.2328C120.123 27.0675 119.858 26.8288 119.665 26.5384C119.105 25.7652 118.827 24.8337 118.872 23.8901Z" fill="#0F973D"/>
<path d="M110.139 23.6375C110.211 24.6929 109.899 25.7393 109.256 26.5935C109.061 26.8545 108.806 27.067 108.511 27.2136C108.215 27.3601 107.888 27.4366 107.557 27.4366C107.225 27.4366 106.898 27.3601 106.603 27.2136C106.307 27.067 106.052 26.8545 105.858 26.5935C105.26 25.8156 104.938 24.8714 104.938 23.9012C104.938 22.9311 105.26 21.9868 105.858 21.2089C106.053 20.95 106.309 20.7394 106.604 20.5943C106.9 20.4492 107.226 20.3735 107.557 20.3735C107.888 20.3735 108.214 20.4492 108.509 20.5943C108.804 20.7394 109.06 20.95 109.256 21.2089C109.817 21.9022 110.128 22.7557 110.139 23.6375Z" fill="#0F973D"/>
</g>
<defs>
<clipPath id="clip0_8408_929">
<rect width="41" height="39" fill="white" transform="translate(94)"/>
</clipPath>
</defs>
</svg>
